<svg width="136" height="24" viewBox="0 0 136 24" fill="none" xmlns="http://www.w3.org/2000/svg">
<path d="M20.147 8.82031H15.4808C15.3956 8.21662 15.2216 7.6804 14.9588 7.21165C14.696 6.73579 14.3587 6.33097 13.9467 5.99716C13.5348 5.66335 13.0589 5.40767 12.5192 5.23011C11.9865 5.05256 11.4077 4.96378 10.7827 4.96378C9.65341 4.96378 8.66974 5.24432 7.83168 5.8054C6.99361 6.35937 6.34375 7.16903 5.8821 8.23438C5.42045 9.29261 5.18963 10.5781 5.18963 12.0909C5.18963 13.6463 5.42045 14.9531 5.8821 16.0114C6.35085 17.0696 7.00426 17.8686 7.84233 18.4084C8.6804 18.9482 9.64986 19.218 10.7507 19.218C11.3686 19.218 11.9403 19.1364 12.4659 18.973C12.9986 18.8097 13.4709 18.5717 13.8828 18.2592C14.2947 17.9396 14.6357 17.5526 14.9055 17.098C15.1825 16.6435 15.3743 16.125 15.4808 15.5426L20.147 15.5639C20.0263 16.5653 19.7244 17.5312 19.2415 18.4616C18.7656 19.3849 18.1229 20.2124 17.3132 20.9439C16.5107 21.6683 15.5518 22.2436 14.4368 22.6697C13.3288 23.0888 12.0753 23.2983 10.6761 23.2983C8.73011 23.2983 6.99006 22.858 5.45597 21.9773C3.92898 21.0966 2.72159 19.8217 1.83381 18.1527C0.953125 16.4837 0.512784 14.4631 0.512784 12.0909C0.512784 9.71165 0.960227 7.6875 1.85511 6.01847C2.75 4.34943 3.96449 3.07812 5.49858 2.20455C7.03267 1.32386 8.75852 0.883522 10.6761 0.883522C11.9403 0.883522 13.1122 1.06108 14.1918 1.41619C15.2784 1.77131 16.2408 2.28977 17.0788 2.97159C17.9169 3.64631 18.5987 4.47372 19.1243 5.45383C19.657 6.43395 19.9979 7.55611 20.147 8.82031ZM23.4549 23V1.18182H28.0678V10.1839H37.4322V1.18182H42.0344V23H37.4322V13.9872H28.0678V23H23.4549ZM45.8377 23V1.18182H60.5394V4.98508H50.4506V10.1839H59.783V13.9872H50.4506V19.1967H60.582V23H45.8377ZM83.4576 8.82031H78.7914C78.7061 8.21662 78.5321 7.6804 78.2694 7.21165C78.0066 6.73579 77.6692 6.33097 77.2573 5.99716C76.8453 5.66335 76.3695 5.40767 75.8297 5.23011C75.2971 5.05256 74.7182 4.96378 74.0932 4.96378C72.964 4.96378 71.9803 5.24432 71.1422 5.8054C70.3042 6.35937 69.6543 7.16903 69.1926 8.23438C68.731 9.29261 68.5002 10.5781 68.5002 12.0909C68.5002 13.6463 68.731 14.9531 69.1926 16.0114C69.6614 17.0696 70.3148 17.8686 71.1529 18.4084C71.9909 18.9482 72.9604 19.218 74.0613 19.218C74.6792 19.218 75.2509 19.1364 75.7765 18.973C76.3091 18.8097 76.7814 18.5717 77.1934 18.2592C77.6053 17.9396 77.9462 17.5526 78.2161 17.098C78.4931 16.6435 78.6848 16.125 78.7914 15.5426L83.4576 15.5639C83.3368 16.5653 83.035 17.5312 82.552 18.4616C82.0762 19.3849 81.4334 20.2124 80.6238 20.9439C79.8212 21.6683 78.8624 22.2436 77.7473 22.6697C76.6394 23.0888 75.3858 23.2983 73.9867 23.2983C72.0407 23.2983 70.3006 22.858 68.7665 21.9773C67.2395 21.0966 66.0321 19.8217 65.1444 18.1527C64.2637 16.4837 63.8233 14.4631 63.8233 12.0909C63.8233 9.71165 64.2708 7.6875 65.1657 6.01847C66.0605 4.34943 67.275 3.07812 68.8091 2.20455C70.3432 1.32386 72.0691 0.883522 73.9867 0.883522C75.2509 0.883522 76.4228 1.06108 77.5023 1.41619C78.589 1.77131 79.5513 2.28977 80.3894 2.97159C81.2275 3.64631 81.9093 4.47372 82.4348 5.45383C82.9675 6.43395 83.3084 7.55611 83.4576 8.82031ZM86.7654 23V1.18182H91.3784V10.8018H91.666L99.5176 1.18182H105.047L96.9501 10.951L105.143 23H99.6241L93.6476 14.0298L91.3784 16.7997V23H86.7654ZM112.062 1.18182V23H107.449V1.18182H112.062ZM135.907 12.0909C135.907 14.4702 135.456 16.4943 134.554 18.1634C133.659 19.8324 132.438 21.1072 130.889 21.9879C129.348 22.8615 127.615 23.2983 125.69 23.2983C123.751 23.2983 122.011 22.858 120.47 21.9773C118.929 21.0966 117.711 19.8217 116.816 18.1527C115.921 16.4837 115.474 14.4631 115.474 12.0909C115.474 9.71165 115.921 7.6875 116.816 6.01847C117.711 4.34943 118.929 3.07812 120.47 2.20455C122.011 1.32386 123.751 0.883522 125.69 0.883522C127.615 0.883522 129.348 1.32386 130.889 2.20455C132.438 3.07812 133.659 4.34943 134.554 6.01847C135.456 7.6875 135.907 9.71165 135.907 12.0909ZM131.23 12.0909C131.23 10.5497 130.999 9.25 130.538 8.19176C130.083 7.13352 129.44 6.33097 128.609 5.78409C127.778 5.23722 126.805 4.96378 125.69 4.96378C124.575 4.96378 123.602 5.23722 122.771 5.78409C121.94 6.33097 121.294 7.13352 120.832 8.19176C120.378 9.25 120.151 10.5497 120.151 12.0909C120.151 13.6321 120.378 14.9318 120.832 15.9901C121.294 17.0483 121.94 17.8509 122.771 18.3977C123.602 18.9446 124.575 19.218 125.69 19.218C126.805 19.218 127.778 18.9446 128.609 18.3977C129.44 17.8509 130.083 17.0483 130.538 15.9901C130.999 14.9318 131.23 13.6321 131.23 12.0909Z" fill="white"/>
</svg>
